<svg xmlns="http://www.w3.org/2000/svg" viewBox="0 0 128 128">
  <rect width="128" height="128" rx="18" fill="#fff9f0" />
  <circle cx="64" cy="64" r="42" fill="#ffb347" />
  <circle cx="64" cy="70" r="30" fill="#ffe0b2" />
  <circle cx="46" cy="55" r="9" fill="#fff" />
  <circle cx="82" cy="55" r="9" fill="#fff" />
  <circle cx="46" cy="55" r="4" fill="#333" />
  <circle cx="82" cy="55" r="4" fill="#333" />
  <path
    d="M48 83c5 4 10 6 16 6s12-2 16-6"
    fill="none"
    stroke="#d97706"
    stroke-width="5"
    stroke-linecap="round"
  />
  <path
    d="M64 64c-4 0-8 2-8 5s4 4 8 4 8-1 8-4-4-5-8-5z"
    fill="#333"
  />
  <path
    d="M30 60c-8-2-12-9-9-16 3-8 12-10 20-4"
    fill="none"
    stroke="#d97706"
    stroke-width="6"
    stroke-linecap="round"
  />
  <path
    d="M98 60c8-2 12-9 9-16-3-8-12-10-20-4"
    fill="none"
    stroke="#d97706"
    stroke-width="6"
    stroke-linecap="round"
  />
</svg>
