<svg xmlns="http://www.w3.org/2000/svg" viewBox="0 0 128 128">
  <rect width="128" height="128" rx="18" fill="#f0f7ff" />
  <rect x="20" y="58" width="88" height="30" rx="10" fill="#4f46e5" />
  <rect x="32" y="40" width="44" height="24" rx="6" fill="#6366f1" />
  <rect x="78" y="46" width="24" height="18" rx="4" fill="#818cf8" />
  <rect x="24" y="64" width="20" height="12" rx="4" fill="#eef2ff" />
  <rect x="50" y="64" width="20" height="12" rx="4" fill="#eef2ff" />
  <rect x="76" y="64" width="20" height="12" rx="4" fill="#eef2ff" />
  <path d="M20 90h88" stroke="#1f2937" stroke-width="4" stroke-linecap="round" />
  <circle cx="36" cy="94" r="10" fill="#1f2937" />
  <circle cx="36" cy="94" r="4" fill="#9ca3af" />
  <circle cx="66" cy="94" r="10" fill="#1f2937" />
  <circle cx="66" cy="94" r="4" fill="#9ca3af" />
  <circle cx="96" cy="94" r="10" fill="#1f2937" />
  <circle cx="96" cy="94" r="4" fill="#9ca3af" />
  <path
    d="M52 36c2-6 6-10 12-10s10 4 12 10"
    fill="none"
    stroke="#312e81"
    stroke-width="5"
    stroke-linecap="round"
  />
</svg>
